<svg id="10015.io" viewBox="0 0 1200 630" xmlns="http://www.w3.org/2000/svg"><defs><pattern id="svg-pattern" x="0" y="0" width="57" height="57" patternUnits="userSpaceOnUse" patternTransform="translate(31, 31) rotate(345) skewX(-2)"><svg width="26" height="26" viewBox="0 0 100 100"><g fill="#e0e0e0" opacity="1"><path d="M88.3721 50C88.3721 71.1923 71.1923 88.3721 50 88.3721C28.8077 88.3721 11.6279 71.1923 11.6279 50C11.6279 28.8077 28.8077 11.6279 50 11.6279C71.1923 11.6279 88.3721 28.8077 88.3721 50ZM100 50C100 77.6142 77.6142 100 50 100C22.3858 100 0 77.6142 0 50C0 22.3858 22.3858 0 50 0C77.6142 0 100 22.3858 100 50ZM65.1163 50C65.1163 58.3485 58.3485 65.1163 50 65.1163C41.6515 65.1163 34.8837 58.3485 34.8837 50C34.8837 41.6515 41.6515 34.8837 50 34.8837C58.3485 34.8837 65.1163 41.6515 65.1163 50ZM76.7442 50C76.7442 64.7704 64.7704 76.7442 50 76.7442C35.2296 76.7442 23.2558 64.7704 23.2558 50C23.2558 35.2296 35.2296 23.2558 50 23.2558C64.7704 23.2558 76.7442 35.2296 76.7442 50Z" fill-rule="evenodd" clip-rule="evenodd"></path></g></svg></pattern></defs><rect x="0" y="0" width="100%" height="100%" fill="#ffffff"></rect><rect x="0" y="0" width="100%" height="100%" fill="url(#svg-pattern)"></rect></svg>